<svg version="1.1" xmlns="http://www.w3.org/2000/svg" xmlns:xlink="http://www.w3.org/1999/xlink" width="266.65474" height="32.3691" viewBox="0,0,266.65474,32.3691"><g transform="translate(-115.43133,-163.92093)"><g data-paper-data="{&quot;isPaintingLayer&quot;:true}" fill-rule="nonzero" stroke-linecap="butt" stroke-linejoin="miter" stroke-miterlimit="10" stroke-dasharray="" stroke-dashoffset="0" style="mix-blend-mode: normal"><path d="M130.63463,194.91346c-8.46726,-0.12101 -14.20329,-10.74974 -14.20329,-15.8699c0,-4.80167 6.28169,-13.48236 14.20329,-13.95701c7.92161,-0.47465 218.73075,0 218.73075,0v29.82692c0,0 -133.37698,1.21991 -218.73075,0z" fill="#ffffff" stroke="#000000" stroke-width="2"/><path d="M148.15203,194.74785v-29.82692c0,0 210.80914,-0.47465 218.73075,0c7.92161,0.47465 14.2033,9.15534 14.2033,13.95702c0,5.12016 -5.73603,15.74889 -14.2033,15.8699c-85.35377,1.21991 -218.73075,0 -218.73075,0z" data-paper-data="{&quot;index&quot;:null}" fill="#ffffff" stroke="#000000" stroke-width="2"/><path d="M143.82558,193.56424v-27.4597h47.34432v27.4597z" fill="#ffffff" stroke="none" stroke-width="0"/><text transform="translate(122.25191,184.82186) scale(0.41793,0.41793)" font-size="40" xml:space="preserve" fill-opacity="0.46667" fill="#000000" fill-rule="nonzero" stroke="none" stroke-width="1" stroke-linecap="butt" stroke-linejoin="miter" stroke-miterlimit="10" stroke-dasharray="" stroke-dashoffset="0" font-family="&quot;aptos&quot;, Sans Serif" font-weight="normal" text-anchor="start" style="mix-blend-mode: normal"><tspan x="0" dy="0">Search...</tspan></text></g></g></svg>